# xmcd
#
# Track frame offsets: 
#        150
#        14219
#        28630
#        46256
#        62356
#        76526
#        90753
#        105221
#        121836
#        138371
#        154338
#        173567
#
# Disc length: 2500 seconds
#
# Revision: 0
# Processed by: cddbd v1.5.2PL0 Copyright (c) Steve Scherf et al.
# Submitted via: ExactAudioCopy v1.0b1
#
DISCID=7d09c20c
DTITLE=Joe Nichols - Old Things New
DYEAR=2009
DGENRE=Country
TTITLE0=Gimmie That Girl
TTITLE1=It's Me I'm Worried About
TTITLE2=Old Things New
TTITLE3=Man, Woman
TTITLE4=Believers
TTITLE5=Cheaper Than a Shrink
TTITLE6=The Shape I'm in
TTITLE7=This Bed's Too Big
TTITLE8=We All Go Home
TTITLE9=An Old Friend of Mine
TTITLE10=Let's Get Drunk and Fight
TTITLE11=Tequila Makes Her Clothes Fall
EXTD=
EXTT0=
EXTT1=
EXTT2=
EXTT3=
EXTT4=
EXTT5=
EXTT6=
EXTT7=
EXTT8=
EXTT9=
EXTT10=
EXTT11=
PLAYORDER=
